<svg width="39" height="45" viewBox="0 0 39 45" fill="none" xmlns="http://www.w3.org/2000/svg">
<path d="M24.3317 10.0282H30.8529V30.6788C30.8529 32.1732 30.3095 33.4639 29.2226 34.5507C28.1357 35.6376 26.913 36.1131 25.4186 36.1131H5.85486C4.36041 36.1131 3.06975 35.6376 1.98287 34.5507C0.896002 33.4639 0.420495 32.1732 0.420495 30.6788V10.0282H6.94173C6.94173 8.4658 7.28138 7.03928 8.09653 5.68069C8.84375 4.3221 9.8627 3.30316 11.2213 2.48801C12.5799 1.74078 14.0064 1.33321 15.6367 1.33321C17.1991 1.33321 18.6256 1.74078 19.9842 2.48801C21.3428 3.30316 22.3617 4.3221 23.1769 5.68069C23.9241 7.03928 24.3317 8.4658 24.3317 10.0282ZM15.6367 3.50695C13.8026 3.50695 12.2402 4.18625 11.0175 5.40898C9.72684 6.69964 9.11547 8.26202 9.11547 10.0282H22.1579C22.1579 8.26202 21.4786 6.69964 20.2559 5.40898C18.9653 4.18625 17.4029 3.50695 15.6367 3.50695ZM28.6792 30.6788V12.2019H24.3317V15.4625C24.3317 15.8022 24.1958 16.0739 23.992 16.2777C23.7882 16.4815 23.5165 16.5494 23.2448 16.5494C22.9052 16.5494 22.6334 16.4815 22.4297 16.2777C22.2259 16.0739 22.1579 15.8022 22.1579 15.4625V12.2019H9.11547V15.4625C9.11547 15.8022 8.97961 16.0739 8.77582 16.2777C8.57204 16.4815 8.30032 16.5494 8.0286 16.5494C7.68895 16.5494 7.41723 16.4815 7.21345 16.2777C7.00966 16.0739 6.94173 15.8022 6.94173 15.4625V12.2019H2.59424V30.6788C2.59424 31.6298 2.86596 32.377 3.54525 32.9884C4.15662 33.6677 4.90384 33.9394 5.85486 33.9394H25.4186C26.3016 33.9394 27.0489 33.6677 27.7282 32.9884C28.3395 32.377 28.6792 31.6298 28.6792 30.6788Z" fill="#E5DFD9"/>
<ellipse cx="28.5012" cy="34.0184" rx="9.96603" ry="10.1951" fill="#141414"/>
<path d="M33.5905 32.608C33.6471 32.608 33.6754 32.6363 33.732 32.6929C33.7886 32.7495 33.8169 32.7778 33.8169 32.8345V33.7402C33.8169 33.7968 33.7886 33.8534 33.732 33.91C33.6754 33.9666 33.6471 33.9666 33.5905 33.9666H29.0619V38.4952C29.0619 38.5519 29.0336 38.6085 28.977 38.6651C28.9203 38.7217 28.892 38.7217 28.8354 38.7217H27.9297C27.8731 38.7217 27.8165 38.7217 27.7599 38.6651C27.7033 38.6085 27.7033 38.5519 27.7033 38.4952V33.9666H23.1746C23.118 33.9666 23.0614 33.9666 23.0048 33.91C22.9482 33.8534 22.9482 33.7968 22.9482 33.7402V32.8345C22.9482 32.7778 22.9482 32.7495 23.0048 32.6929C23.0614 32.6363 23.118 32.608 23.1746 32.608H27.7033V28.0794C27.7033 28.0228 27.7033 27.9945 27.7599 27.9379C27.8165 27.8813 27.8731 27.853 27.9297 27.853H28.8354C28.892 27.853 28.9203 27.8813 28.977 27.9379C29.0336 27.9945 29.0619 28.0228 29.0619 28.0794V32.608H33.5905Z" fill="#E5DFD9"/>
</svg>
