<svg width="13" height="18" viewBox="0 0 13 18" fill="none" xmlns="http://www.w3.org/2000/svg">
<path d="M11.951 2.71847H8.81213C9.29791 3.31635 9.63422 4.02633 9.85842 4.81105H11.951C12.0631 4.81105 12.1752 4.88579 12.2499 4.96052C12.3247 5.03526 12.3994 5.14736 12.3994 5.25946V6.15628C12.3994 6.30575 12.3247 6.41786 12.2499 6.49259C12.1752 6.56733 12.0631 6.60469 11.951 6.60469H10.0079C9.93316 8.13676 9.41001 9.36989 8.43845 10.3041C7.4669 11.2383 6.23377 11.6867 4.73907 11.6867H4.25329L10.2695 16.8808C10.4189 17.0302 10.4937 17.1797 10.4189 17.3665C10.3442 17.5908 10.1947 17.6655 9.97052 17.6655H7.6911C7.579 17.6655 7.4669 17.6281 7.39216 17.5534L0.591268 11.6867C0.479166 11.6119 0.441798 11.4998 0.441798 11.3504V10.0425C0.441798 9.93041 0.479166 9.8183 0.553901 9.74357C0.628636 9.66883 0.740739 9.5941 0.890209 9.5941H4.36539C5.29958 9.5941 6.04693 9.33252 6.64481 8.80938C7.20532 8.28623 7.54163 7.53888 7.61637 6.60469H0.890209C0.740739 6.60469 0.628636 6.56733 0.553901 6.49259C0.479166 6.41786 0.441798 6.30575 0.441798 6.15628V5.25946C0.441798 5.14736 0.479166 5.03526 0.553901 4.96052C0.628636 4.88579 0.740739 4.81105 0.890209 4.81105H7.35479C7.13059 4.25054 6.75691 3.80213 6.23377 3.50319C5.71062 3.20425 5.11274 3.01741 4.40276 3.01741H0.890209C0.740739 3.01741 0.628636 2.98004 0.553901 2.90531C0.479166 2.83057 0.441798 2.71847 0.441798 2.569V1.37324C0.441798 1.26113 0.479166 1.14903 0.553901 1.0743C0.628636 0.999561 0.740739 0.924826 0.890209 0.924826H11.951C12.0631 0.924826 12.1752 0.999561 12.2499 1.0743C12.3247 1.14903 12.3994 1.26113 12.3994 1.37324V2.27006C12.3994 2.41953 12.3247 2.53163 12.2499 2.60637C12.1752 2.6811 12.0631 2.71847 11.951 2.71847Z" fill="#E5DFD9"/>
</svg>
